<svg width="208" height="30" viewBox="0 0 208 30" fill="none" xmlns="http://www.w3.org/2000/svg">
<mask id="path-1-outside-1_221_111" maskUnits="userSpaceOnUse" x="96.8068" y="2.28" width="111" height="27" fill="black">
<rect fill="white" x="96.8068" y="2.28" width="111" height="27"/>
<path d="M113.667 12.56C113.312 11.9067 112.799 11.412 112.127 11.076C111.473 10.7213 110.699 10.544 109.803 10.544C108.253 10.544 107.012 11.0573 106.079 12.084C105.145 13.092 104.679 14.4453 104.679 16.144C104.679 17.9547 105.164 19.3733 106.135 20.4C107.124 21.408 108.477 21.912 110.195 21.912C111.371 21.912 112.36 21.6133 113.163 21.016C113.984 20.4187 114.581 19.56 114.955 18.44H108.879V14.912H119.295V19.364C118.94 20.5587 118.333 21.6693 117.475 22.696C116.635 23.7227 115.561 24.5533 114.255 25.188C112.948 25.8227 111.473 26.14 109.831 26.14C107.889 26.14 106.153 25.72 104.623 24.88C103.111 24.0213 101.925 22.836 101.067 21.324C100.227 19.812 99.8068 18.0853 99.8068 16.144C99.8068 14.2027 100.227 12.476 101.067 10.964C101.925 9.43333 103.111 8.248 104.623 7.408C106.135 6.54933 107.861 6.12 109.803 6.12C112.155 6.12 114.133 6.68933 115.739 7.828C117.363 8.96667 118.436 10.544 118.959 12.56H113.667Z"/>
<path d="M120.995 18.16C120.995 16.5547 121.294 15.1453 121.891 13.932C122.507 12.7187 123.338 11.7853 124.383 11.132C125.428 10.4787 126.595 10.152 127.883 10.152C128.984 10.152 129.946 10.376 130.767 10.824C131.607 11.272 132.251 11.86 132.699 12.588V10.376H137.487V26H132.699V23.788C132.232 24.516 131.579 25.104 130.739 25.552C129.918 26 128.956 26.224 127.855 26.224C126.586 26.224 125.428 25.8973 124.383 25.244C123.338 24.572 122.507 23.6293 121.891 22.416C121.294 21.184 120.995 19.7653 120.995 18.16ZM132.699 18.188C132.699 16.9933 132.363 16.0507 131.691 15.36C131.038 14.6693 130.235 14.324 129.283 14.324C128.331 14.324 127.519 14.6693 126.847 15.36C126.194 16.032 125.867 16.9653 125.867 18.16C125.867 19.3547 126.194 20.3067 126.847 21.016C127.519 21.7067 128.331 22.052 129.283 22.052C130.235 22.052 131.038 21.7067 131.691 21.016C132.363 20.3253 132.699 19.3827 132.699 18.188Z"/>
<path d="M145.739 12.98C146.299 12.1213 146.999 11.4493 147.839 10.964C148.679 10.46 149.612 10.208 150.639 10.208V15.276H149.323C148.128 15.276 147.232 15.5373 146.635 16.06C146.037 16.564 145.739 17.46 145.739 18.748V26H140.951V10.376H145.739V12.98Z"/>
<path d="M151.975 18.16C151.975 16.5547 152.274 15.1453 152.871 13.932C153.487 12.7187 154.318 11.7853 155.363 11.132C156.409 10.4787 157.575 10.152 158.863 10.152C159.89 10.152 160.823 10.3667 161.663 10.796C162.522 11.2253 163.194 11.804 163.679 12.532V5.28H168.467V26H163.679V23.76C163.231 24.5067 162.587 25.104 161.747 25.552C160.926 26 159.965 26.224 158.863 26.224C157.575 26.224 156.409 25.8973 155.363 25.244C154.318 24.572 153.487 23.6293 152.871 22.416C152.274 21.184 151.975 19.7653 151.975 18.16ZM163.679 18.188C163.679 16.9933 163.343 16.0507 162.671 15.36C162.018 14.6693 161.215 14.324 160.263 14.324C159.311 14.324 158.499 14.6693 157.827 15.36C157.174 16.032 156.847 16.9653 156.847 18.16C156.847 19.3547 157.174 20.3067 157.827 21.016C158.499 21.7067 159.311 22.052 160.263 22.052C161.215 22.052 162.018 21.7067 162.671 21.016C163.343 20.3253 163.679 19.3827 163.679 18.188Z"/>
<path d="M186.659 17.936C186.659 18.384 186.631 18.8507 186.575 19.336H175.739C175.814 20.3067 176.122 21.0533 176.663 21.576C177.223 22.08 177.905 22.332 178.707 22.332C179.902 22.332 180.733 21.828 181.199 20.82H186.295C186.034 21.8467 185.558 22.7707 184.867 23.592C184.195 24.4133 183.346 25.0573 182.319 25.524C181.293 25.9907 180.145 26.224 178.875 26.224C177.345 26.224 175.982 25.8973 174.787 25.244C173.593 24.5907 172.659 23.6573 171.987 22.444C171.315 21.2307 170.979 19.812 170.979 18.188C170.979 16.564 171.306 15.1453 171.959 13.932C172.631 12.7187 173.565 11.7853 174.759 11.132C175.954 10.4787 177.326 10.152 178.875 10.152C180.387 10.152 181.731 10.4693 182.907 11.104C184.083 11.7387 184.998 12.644 185.651 13.82C186.323 14.996 186.659 16.368 186.659 17.936ZM181.759 16.676C181.759 15.8547 181.479 15.2013 180.919 14.716C180.359 14.2307 179.659 13.988 178.819 13.988C178.017 13.988 177.335 14.2213 176.775 14.688C176.234 15.1547 175.898 15.8173 175.767 16.676H181.759Z"/>
<path d="M198.705 10.208C200.535 10.208 201.99 10.8053 203.073 12C204.174 13.176 204.725 14.8 204.725 16.872V26H199.965V17.516C199.965 16.4707 199.695 15.6587 199.153 15.08C198.612 14.5013 197.884 14.212 196.969 14.212C196.054 14.212 195.327 14.5013 194.785 15.08C194.244 15.6587 193.973 16.4707 193.973 17.516V26H189.185V10.376H193.973V12.448C194.458 11.7573 195.112 11.216 195.933 10.824C196.754 10.4133 197.679 10.208 198.705 10.208Z"/>
</mask>
<path d="M113.667 12.56C113.312 11.9067 112.799 11.412 112.127 11.076C111.473 10.7213 110.699 10.544 109.803 10.544C108.253 10.544 107.012 11.0573 106.079 12.084C105.145 13.092 104.679 14.4453 104.679 16.144C104.679 17.9547 105.164 19.3733 106.135 20.4C107.124 21.408 108.477 21.912 110.195 21.912C111.371 21.912 112.36 21.6133 113.163 21.016C113.984 20.4187 114.581 19.56 114.955 18.44H108.879V14.912H119.295V19.364C118.94 20.5587 118.333 21.6693 117.475 22.696C116.635 23.7227 115.561 24.5533 114.255 25.188C112.948 25.8227 111.473 26.14 109.831 26.14C107.889 26.14 106.153 25.72 104.623 24.88C103.111 24.0213 101.925 22.836 101.067 21.324C100.227 19.812 99.8068 18.0853 99.8068 16.144C99.8068 14.2027 100.227 12.476 101.067 10.964C101.925 9.43333 103.111 8.248 104.623 7.408C106.135 6.54933 107.861 6.12 109.803 6.12C112.155 6.12 114.133 6.68933 115.739 7.828C117.363 8.96667 118.436 10.544 118.959 12.56H113.667Z" fill="#588534"/>
<path d="M120.995 18.16C120.995 16.5547 121.294 15.1453 121.891 13.932C122.507 12.7187 123.338 11.7853 124.383 11.132C125.428 10.4787 126.595 10.152 127.883 10.152C128.984 10.152 129.946 10.376 130.767 10.824C131.607 11.272 132.251 11.86 132.699 12.588V10.376H137.487V26H132.699V23.788C132.232 24.516 131.579 25.104 130.739 25.552C129.918 26 128.956 26.224 127.855 26.224C126.586 26.224 125.428 25.8973 124.383 25.244C123.338 24.572 122.507 23.6293 121.891 22.416C121.294 21.184 120.995 19.7653 120.995 18.16ZM132.699 18.188C132.699 16.9933 132.363 16.0507 131.691 15.36C131.038 14.6693 130.235 14.324 129.283 14.324C128.331 14.324 127.519 14.6693 126.847 15.36C126.194 16.032 125.867 16.9653 125.867 18.16C125.867 19.3547 126.194 20.3067 126.847 21.016C127.519 21.7067 128.331 22.052 129.283 22.052C130.235 22.052 131.038 21.7067 131.691 21.016C132.363 20.3253 132.699 19.3827 132.699 18.188Z" fill="#588534"/>
<path d="M145.739 12.98C146.299 12.1213 146.999 11.4493 147.839 10.964C148.679 10.46 149.612 10.208 150.639 10.208V15.276H149.323C148.128 15.276 147.232 15.5373 146.635 16.06C146.037 16.564 145.739 17.46 145.739 18.748V26H140.951V10.376H145.739V12.98Z" fill="#588534"/>
<path d="M151.975 18.16C151.975 16.5547 152.274 15.1453 152.871 13.932C153.487 12.7187 154.318 11.7853 155.363 11.132C156.409 10.4787 157.575 10.152 158.863 10.152C159.89 10.152 160.823 10.3667 161.663 10.796C162.522 11.2253 163.194 11.804 163.679 12.532V5.28H168.467V26H163.679V23.76C163.231 24.5067 162.587 25.104 161.747 25.552C160.926 26 159.965 26.224 158.863 26.224C157.575 26.224 156.409 25.8973 155.363 25.244C154.318 24.572 153.487 23.6293 152.871 22.416C152.274 21.184 151.975 19.7653 151.975 18.16ZM163.679 18.188C163.679 16.9933 163.343 16.0507 162.671 15.36C162.018 14.6693 161.215 14.324 160.263 14.324C159.311 14.324 158.499 14.6693 157.827 15.36C157.174 16.032 156.847 16.9653 156.847 18.16C156.847 19.3547 157.174 20.3067 157.827 21.016C158.499 21.7067 159.311 22.052 160.263 22.052C161.215 22.052 162.018 21.7067 162.671 21.016C163.343 20.3253 163.679 19.3827 163.679 18.188Z" fill="#588534"/>
<path d="M186.659 17.936C186.659 18.384 186.631 18.8507 186.575 19.336H175.739C175.814 20.3067 176.122 21.0533 176.663 21.576C177.223 22.08 177.905 22.332 178.707 22.332C179.902 22.332 180.733 21.828 181.199 20.82H186.295C186.034 21.8467 185.558 22.7707 184.867 23.592C184.195 24.4133 183.346 25.0573 182.319 25.524C181.293 25.9907 180.145 26.224 178.875 26.224C177.345 26.224 175.982 25.8973 174.787 25.244C173.593 24.5907 172.659 23.6573 171.987 22.444C171.315 21.2307 170.979 19.812 170.979 18.188C170.979 16.564 171.306 15.1453 171.959 13.932C172.631 12.7187 173.565 11.7853 174.759 11.132C175.954 10.4787 177.326 10.152 178.875 10.152C180.387 10.152 181.731 10.4693 182.907 11.104C184.083 11.7387 184.998 12.644 185.651 13.82C186.323 14.996 186.659 16.368 186.659 17.936ZM181.759 16.676C181.759 15.8547 181.479 15.2013 180.919 14.716C180.359 14.2307 179.659 13.988 178.819 13.988C178.017 13.988 177.335 14.2213 176.775 14.688C176.234 15.1547 175.898 15.8173 175.767 16.676H181.759Z" fill="#588534"/>
<path d="M198.705 10.208C200.535 10.208 201.99 10.8053 203.073 12C204.174 13.176 204.725 14.8 204.725 16.872V26H199.965V17.516C199.965 16.4707 199.695 15.6587 199.153 15.08C198.612 14.5013 197.884 14.212 196.969 14.212C196.054 14.212 195.327 14.5013 194.785 15.08C194.244 15.6587 193.973 16.4707 193.973 17.516V26H189.185V10.376H193.973V12.448C194.458 11.7573 195.112 11.216 195.933 10.824C196.754 10.4133 197.679 10.208 198.705 10.208Z" fill="#588534"/>
<path d="M113.667 12.56C113.312 11.9067 112.799 11.412 112.127 11.076C111.473 10.7213 110.699 10.544 109.803 10.544C108.253 10.544 107.012 11.0573 106.079 12.084C105.145 13.092 104.679 14.4453 104.679 16.144C104.679 17.9547 105.164 19.3733 106.135 20.4C107.124 21.408 108.477 21.912 110.195 21.912C111.371 21.912 112.36 21.6133 113.163 21.016C113.984 20.4187 114.581 19.56 114.955 18.44H108.879V14.912H119.295V19.364C118.94 20.5587 118.333 21.6693 117.475 22.696C116.635 23.7227 115.561 24.5533 114.255 25.188C112.948 25.8227 111.473 26.14 109.831 26.14C107.889 26.14 106.153 25.72 104.623 24.88C103.111 24.0213 101.925 22.836 101.067 21.324C100.227 19.812 99.8068 18.0853 99.8068 16.144C99.8068 14.2027 100.227 12.476 101.067 10.964C101.925 9.43333 103.111 8.248 104.623 7.408C106.135 6.54933 107.861 6.12 109.803 6.12C112.155 6.12 114.133 6.68933 115.739 7.828C117.363 8.96667 118.436 10.544 118.959 12.56H113.667Z" stroke="#EDEDED" stroke-width="6" stroke-linejoin="round" mask="url(#path-1-outside-1_221_111)"/>
<path d="M120.995 18.16C120.995 16.5547 121.294 15.1453 121.891 13.932C122.507 12.7187 123.338 11.7853 124.383 11.132C125.428 10.4787 126.595 10.152 127.883 10.152C128.984 10.152 129.946 10.376 130.767 10.824C131.607 11.272 132.251 11.86 132.699 12.588V10.376H137.487V26H132.699V23.788C132.232 24.516 131.579 25.104 130.739 25.552C129.918 26 128.956 26.224 127.855 26.224C126.586 26.224 125.428 25.8973 124.383 25.244C123.338 24.572 122.507 23.6293 121.891 22.416C121.294 21.184 120.995 19.7653 120.995 18.16ZM132.699 18.188C132.699 16.9933 132.363 16.0507 131.691 15.36C131.038 14.6693 130.235 14.324 129.283 14.324C128.331 14.324 127.519 14.6693 126.847 15.36C126.194 16.032 125.867 16.9653 125.867 18.16C125.867 19.3547 126.194 20.3067 126.847 21.016C127.519 21.7067 128.331 22.052 129.283 22.052C130.235 22.052 131.038 21.7067 131.691 21.016C132.363 20.3253 132.699 19.3827 132.699 18.188Z" stroke="#EDEDED" stroke-width="6" stroke-linejoin="round" mask="url(#path-1-outside-1_221_111)"/>
<path d="M145.739 12.98C146.299 12.1213 146.999 11.4493 147.839 10.964C148.679 10.46 149.612 10.208 150.639 10.208V15.276H149.323C148.128 15.276 147.232 15.5373 146.635 16.06C146.037 16.564 145.739 17.46 145.739 18.748V26H140.951V10.376H145.739V12.98Z" stroke="#EDEDED" stroke-width="6" stroke-linejoin="round" mask="url(#path-1-outside-1_221_111)"/>
<path d="M151.975 18.16C151.975 16.5547 152.274 15.1453 152.871 13.932C153.487 12.7187 154.318 11.7853 155.363 11.132C156.409 10.4787 157.575 10.152 158.863 10.152C159.89 10.152 160.823 10.3667 161.663 10.796C162.522 11.2253 163.194 11.804 163.679 12.532V5.28H168.467V26H163.679V23.76C163.231 24.5067 162.587 25.104 161.747 25.552C160.926 26 159.965 26.224 158.863 26.224C157.575 26.224 156.409 25.8973 155.363 25.244C154.318 24.572 153.487 23.6293 152.871 22.416C152.274 21.184 151.975 19.7653 151.975 18.16ZM163.679 18.188C163.679 16.9933 163.343 16.0507 162.671 15.36C162.018 14.6693 161.215 14.324 160.263 14.324C159.311 14.324 158.499 14.6693 157.827 15.36C157.174 16.032 156.847 16.9653 156.847 18.16C156.847 19.3547 157.174 20.3067 157.827 21.016C158.499 21.7067 159.311 22.052 160.263 22.052C161.215 22.052 162.018 21.7067 162.671 21.016C163.343 20.3253 163.679 19.3827 163.679 18.188Z" stroke="#EDEDED" stroke-width="6" stroke-linejoin="round" mask="url(#path-1-outside-1_221_111)"/>
<path d="M186.659 17.936C186.659 18.384 186.631 18.8507 186.575 19.336H175.739C175.814 20.3067 176.122 21.0533 176.663 21.576C177.223 22.08 177.905 22.332 178.707 22.332C179.902 22.332 180.733 21.828 181.199 20.82H186.295C186.034 21.8467 185.558 22.7707 184.867 23.592C184.195 24.4133 183.346 25.0573 182.319 25.524C181.293 25.9907 180.145 26.224 178.875 26.224C177.345 26.224 175.982 25.8973 174.787 25.244C173.593 24.5907 172.659 23.6573 171.987 22.444C171.315 21.2307 170.979 19.812 170.979 18.188C170.979 16.564 171.306 15.1453 171.959 13.932C172.631 12.7187 173.565 11.7853 174.759 11.132C175.954 10.4787 177.326 10.152 178.875 10.152C180.387 10.152 181.731 10.4693 182.907 11.104C184.083 11.7387 184.998 12.644 185.651 13.82C186.323 14.996 186.659 16.368 186.659 17.936ZM181.759 16.676C181.759 15.8547 181.479 15.2013 180.919 14.716C180.359 14.2307 179.659 13.988 178.819 13.988C178.017 13.988 177.335 14.2213 176.775 14.688C176.234 15.1547 175.898 15.8173 175.767 16.676H181.759Z" stroke="#EDEDED" stroke-width="6" stroke-linejoin="round" mask="url(#path-1-outside-1_221_111)"/>
<path d="M198.705 10.208C200.535 10.208 201.99 10.8053 203.073 12C204.174 13.176 204.725 14.8 204.725 16.872V26H199.965V17.516C199.965 16.4707 199.695 15.6587 199.153 15.08C198.612 14.5013 197.884 14.212 196.969 14.212C196.054 14.212 195.327 14.5013 194.785 15.08C194.244 15.6587 193.973 16.4707 193.973 17.516V26H189.185V10.376H193.973V12.448C194.458 11.7573 195.112 11.216 195.933 10.824C196.754 10.4133 197.679 10.208 198.705 10.208Z" stroke="#EDEDED" stroke-width="6" stroke-linejoin="round" mask="url(#path-1-outside-1_221_111)"/>
<mask id="path-2-outside-2_221_111" maskUnits="userSpaceOnUse" x="0.735962" y="0.571991" width="99" height="29" fill="black">
<rect fill="white" x="0.735962" y="0.571991" width="99" height="29"/>
<path d="M15.132 26L8.52396 17.32V26H3.73596V6.34399H8.52396V14.968L15.076 6.34399H20.704L13.088 15.976L20.984 26H15.132Z"/>
<path d="M25.6674 8.75199C24.8274 8.75199 24.1367 8.50932 23.5954 8.02399C23.0727 7.51999 22.8114 6.90399 22.8114 6.17599C22.8114 5.42933 23.0727 4.81333 23.5954 4.32799C24.1367 3.82399 24.8274 3.57199 25.6674 3.57199C26.4887 3.57199 27.1607 3.82399 27.6834 4.32799C28.2247 4.81333 28.4954 5.42933 28.4954 6.17599C28.4954 6.90399 28.2247 7.51999 27.6834 8.02399C27.1607 8.50932 26.4887 8.75199 25.6674 8.75199ZM28.0474 10.376V26H23.2594V10.376H28.0474Z"/>
<path d="M41.0372 10.208C42.8665 10.208 44.3225 10.8053 45.4052 12C46.5065 13.176 47.0572 14.8 47.0572 16.872V26H42.2972V17.516C42.2972 16.4707 42.0265 15.6587 41.4852 15.08C40.9439 14.5013 40.2159 14.212 39.3012 14.212C38.3865 14.212 37.6585 14.5013 37.1172 15.08C36.5759 15.6587 36.3052 16.4707 36.3052 17.516V26H31.5172V10.376H36.3052V12.448C36.7905 11.7573 37.4439 11.216 38.2652 10.824C39.0865 10.4133 40.0105 10.208 41.0372 10.208Z"/>
<path d="M49.4324 18.16C49.4324 16.5547 49.7311 15.1453 50.3284 13.932C50.9444 12.7187 51.7751 11.7853 52.8204 11.132C53.8657 10.4787 55.0324 10.152 56.3204 10.152C57.3471 10.152 58.2804 10.3667 59.1204 10.796C59.9791 11.2253 60.6511 11.804 61.1364 12.532V5.27999H65.9244V26H61.1364V23.76C60.6884 24.5067 60.0444 25.104 59.2044 25.552C58.3831 26 57.4217 26.224 56.3204 26.224C55.0324 26.224 53.8657 25.8973 52.8204 25.244C51.7751 24.572 50.9444 23.6293 50.3284 22.416C49.7311 21.184 49.4324 19.7653 49.4324 18.16ZM61.1364 18.188C61.1364 16.9933 60.8004 16.0507 60.1284 15.36C59.4751 14.6693 58.6724 14.324 57.7204 14.324C56.7684 14.324 55.9564 14.6693 55.2844 15.36C54.6311 16.032 54.3044 16.9653 54.3044 18.16C54.3044 19.3547 54.6311 20.3067 55.2844 21.016C55.9564 21.7067 56.7684 22.052 57.7204 22.052C58.6724 22.052 59.4751 21.7067 60.1284 21.016C60.8004 20.3253 61.1364 19.3827 61.1364 18.188Z"/>
<path d="M84.1163 17.936C84.1163 18.384 84.0883 18.8507 84.0323 19.336H73.1963C73.271 20.3067 73.579 21.0533 74.1203 21.576C74.6803 22.08 75.3616 22.332 76.1643 22.332C77.359 22.332 78.1896 21.828 78.6563 20.82H83.7523C83.491 21.8467 83.015 22.7707 82.3243 23.592C81.6523 24.4133 80.803 25.0573 79.7763 25.524C78.7496 25.9907 77.6016 26.224 76.3323 26.224C74.8016 26.224 73.439 25.8973 72.2443 25.244C71.0496 24.5907 70.1163 23.6573 69.4443 22.444C68.7723 21.2307 68.4363 19.812 68.4363 18.188C68.4363 16.564 68.763 15.1453 69.4163 13.932C70.0883 12.7187 71.0216 11.7853 72.2163 11.132C73.411 10.4787 74.783 10.152 76.3323 10.152C77.8443 10.152 79.1883 10.4693 80.3643 11.104C81.5403 11.7387 82.455 12.644 83.1083 13.82C83.7803 14.996 84.1163 16.368 84.1163 17.936ZM79.2163 16.676C79.2163 15.8547 78.9363 15.2013 78.3763 14.716C77.8163 14.2307 77.1163 13.988 76.2763 13.988C75.4736 13.988 74.7923 14.2213 74.2323 14.688C73.691 15.1547 73.355 15.8173 73.2243 16.676H79.2163Z"/>
<path d="M91.4302 12.98C91.9902 12.1213 92.6902 11.4493 93.5302 10.964C94.3702 10.46 95.3035 10.208 96.3302 10.208V15.276H95.0142C93.8195 15.276 92.9235 15.5373 92.3262 16.06C91.7289 16.564 91.4302 17.46 91.4302 18.748V26H86.6422V10.376H91.4302V12.98Z"/>
</mask>
<path d="M15.132 26L8.52396 17.32V26H3.73596V6.34399H8.52396V14.968L15.076 6.34399H20.704L13.088 15.976L20.984 26H15.132Z" fill="#B14646"/>
<path d="M25.6674 8.75199C24.8274 8.75199 24.1367 8.50932 23.5954 8.02399C23.0727 7.51999 22.8114 6.90399 22.8114 6.17599C22.8114 5.42933 23.0727 4.81333 23.5954 4.32799C24.1367 3.82399 24.8274 3.57199 25.6674 3.57199C26.4887 3.57199 27.1607 3.82399 27.6834 4.32799C28.2247 4.81333 28.4954 5.42933 28.4954 6.17599C28.4954 6.90399 28.2247 7.51999 27.6834 8.02399C27.1607 8.50932 26.4887 8.75199 25.6674 8.75199ZM28.0474 10.376V26H23.2594V10.376H28.0474Z" fill="#B14646"/>
<path d="M41.0372 10.208C42.8665 10.208 44.3225 10.8053 45.4052 12C46.5065 13.176 47.0572 14.8 47.0572 16.872V26H42.2972V17.516C42.2972 16.4707 42.0265 15.6587 41.4852 15.08C40.9439 14.5013 40.2159 14.212 39.3012 14.212C38.3865 14.212 37.6585 14.5013 37.1172 15.08C36.5759 15.6587 36.3052 16.4707 36.3052 17.516V26H31.5172V10.376H36.3052V12.448C36.7905 11.7573 37.4439 11.216 38.2652 10.824C39.0865 10.4133 40.0105 10.208 41.0372 10.208Z" fill="#B14646"/>
<path d="M49.4324 18.16C49.4324 16.5547 49.7311 15.1453 50.3284 13.932C50.9444 12.7187 51.7751 11.7853 52.8204 11.132C53.8657 10.4787 55.0324 10.152 56.3204 10.152C57.3471 10.152 58.2804 10.3667 59.1204 10.796C59.9791 11.2253 60.6511 11.804 61.1364 12.532V5.27999H65.9244V26H61.1364V23.76C60.6884 24.5067 60.0444 25.104 59.2044 25.552C58.3831 26 57.4217 26.224 56.3204 26.224C55.0324 26.224 53.8657 25.8973 52.8204 25.244C51.7751 24.572 50.9444 23.6293 50.3284 22.416C49.7311 21.184 49.4324 19.7653 49.4324 18.16ZM61.1364 18.188C61.1364 16.9933 60.8004 16.0507 60.1284 15.36C59.4751 14.6693 58.6724 14.324 57.7204 14.324C56.7684 14.324 55.9564 14.6693 55.2844 15.36C54.6311 16.032 54.3044 16.9653 54.3044 18.16C54.3044 19.3547 54.6311 20.3067 55.2844 21.016C55.9564 21.7067 56.7684 22.052 57.7204 22.052C58.6724 22.052 59.4751 21.7067 60.1284 21.016C60.8004 20.3253 61.1364 19.3827 61.1364 18.188Z" fill="#B14646"/>
<path d="M84.1163 17.936C84.1163 18.384 84.0883 18.8507 84.0323 19.336H73.1963C73.271 20.3067 73.579 21.0533 74.1203 21.576C74.6803 22.08 75.3616 22.332 76.1643 22.332C77.359 22.332 78.1896 21.828 78.6563 20.82H83.7523C83.491 21.8467 83.015 22.7707 82.3243 23.592C81.6523 24.4133 80.803 25.0573 79.7763 25.524C78.7496 25.9907 77.6016 26.224 76.3323 26.224C74.8016 26.224 73.439 25.8973 72.2443 25.244C71.0496 24.5907 70.1163 23.6573 69.4443 22.444C68.7723 21.2307 68.4363 19.812 68.4363 18.188C68.4363 16.564 68.763 15.1453 69.4163 13.932C70.0883 12.7187 71.0216 11.7853 72.2163 11.132C73.411 10.4787 74.783 10.152 76.3323 10.152C77.8443 10.152 79.1883 10.4693 80.3643 11.104C81.5403 11.7387 82.455 12.644 83.1083 13.82C83.7803 14.996 84.1163 16.368 84.1163 17.936ZM79.2163 16.676C79.2163 15.8547 78.9363 15.2013 78.3763 14.716C77.8163 14.2307 77.1163 13.988 76.2763 13.988C75.4736 13.988 74.7923 14.2213 74.2323 14.688C73.691 15.1547 73.355 15.8173 73.2243 16.676H79.2163Z" fill="#B14646"/>
<path d="M91.4302 12.98C91.9902 12.1213 92.6902 11.4493 93.5302 10.964C94.3702 10.46 95.3035 10.208 96.3302 10.208V15.276H95.0142C93.8195 15.276 92.9235 15.5373 92.3262 16.06C91.7289 16.564 91.4302 17.46 91.4302 18.748V26H86.6422V10.376H91.4302V12.98Z" fill="#B14646"/>
<path d="M15.132 26L8.52396 17.32V26H3.73596V6.34399H8.52396V14.968L15.076 6.34399H20.704L13.088 15.976L20.984 26H15.132Z" stroke="#EDEDED" stroke-width="6" stroke-linejoin="round" mask="url(#path-2-outside-2_221_111)"/>
<path d="M25.6674 8.75199C24.8274 8.75199 24.1367 8.50932 23.5954 8.02399C23.0727 7.51999 22.8114 6.90399 22.8114 6.17599C22.8114 5.42933 23.0727 4.81333 23.5954 4.32799C24.1367 3.82399 24.8274 3.57199 25.6674 3.57199C26.4887 3.57199 27.1607 3.82399 27.6834 4.32799C28.2247 4.81333 28.4954 5.42933 28.4954 6.17599C28.4954 6.90399 28.2247 7.51999 27.6834 8.02399C27.1607 8.50932 26.4887 8.75199 25.6674 8.75199ZM28.0474 10.376V26H23.2594V10.376H28.0474Z" stroke="#EDEDED" stroke-width="6" stroke-linejoin="round" mask="url(#path-2-outside-2_221_111)"/>
<path d="M41.0372 10.208C42.8665 10.208 44.3225 10.8053 45.4052 12C46.5065 13.176 47.0572 14.8 47.0572 16.872V26H42.2972V17.516C42.2972 16.4707 42.0265 15.6587 41.4852 15.08C40.9439 14.5013 40.2159 14.212 39.3012 14.212C38.3865 14.212 37.6585 14.5013 37.1172 15.08C36.5759 15.6587 36.3052 16.4707 36.3052 17.516V26H31.5172V10.376H36.3052V12.448C36.7905 11.7573 37.4439 11.216 38.2652 10.824C39.0865 10.4133 40.0105 10.208 41.0372 10.208Z" stroke="#EDEDED" stroke-width="6" stroke-linejoin="round" mask="url(#path-2-outside-2_221_111)"/>
<path d="M49.4324 18.16C49.4324 16.5547 49.7311 15.1453 50.3284 13.932C50.9444 12.7187 51.7751 11.7853 52.8204 11.132C53.8657 10.4787 55.0324 10.152 56.3204 10.152C57.3471 10.152 58.2804 10.3667 59.1204 10.796C59.9791 11.2253 60.6511 11.804 61.1364 12.532V5.27999H65.9244V26H61.1364V23.76C60.6884 24.5067 60.0444 25.104 59.2044 25.552C58.3831 26 57.4217 26.224 56.3204 26.224C55.0324 26.224 53.8657 25.8973 52.8204 25.244C51.7751 24.572 50.9444 23.6293 50.3284 22.416C49.7311 21.184 49.4324 19.7653 49.4324 18.16ZM61.1364 18.188C61.1364 16.9933 60.8004 16.0507 60.1284 15.36C59.4751 14.6693 58.6724 14.324 57.7204 14.324C56.7684 14.324 55.9564 14.6693 55.2844 15.36C54.6311 16.032 54.3044 16.9653 54.3044 18.16C54.3044 19.3547 54.6311 20.3067 55.2844 21.016C55.9564 21.7067 56.7684 22.052 57.7204 22.052C58.6724 22.052 59.4751 21.7067 60.1284 21.016C60.8004 20.3253 61.1364 19.3827 61.1364 18.188Z" stroke="#EDEDED" stroke-width="6" stroke-linejoin="round" mask="url(#path-2-outside-2_221_111)"/>
<path d="M84.1163 17.936C84.1163 18.384 84.0883 18.8507 84.0323 19.336H73.1963C73.271 20.3067 73.579 21.0533 74.1203 21.576C74.6803 22.08 75.3616 22.332 76.1643 22.332C77.359 22.332 78.1896 21.828 78.6563 20.82H83.7523C83.491 21.8467 83.015 22.7707 82.3243 23.592C81.6523 24.4133 80.803 25.0573 79.7763 25.524C78.7496 25.9907 77.6016 26.224 76.3323 26.224C74.8016 26.224 73.439 25.8973 72.2443 25.244C71.0496 24.5907 70.1163 23.6573 69.4443 22.444C68.7723 21.2307 68.4363 19.812 68.4363 18.188C68.4363 16.564 68.763 15.1453 69.4163 13.932C70.0883 12.7187 71.0216 11.7853 72.2163 11.132C73.411 10.4787 74.783 10.152 76.3323 10.152C77.8443 10.152 79.1883 10.4693 80.3643 11.104C81.5403 11.7387 82.455 12.644 83.1083 13.82C83.7803 14.996 84.1163 16.368 84.1163 17.936ZM79.2163 16.676C79.2163 15.8547 78.9363 15.2013 78.3763 14.716C77.8163 14.2307 77.1163 13.988 76.2763 13.988C75.4736 13.988 74.7923 14.2213 74.2323 14.688C73.691 15.1547 73.355 15.8173 73.2243 16.676H79.2163Z" stroke="#EDEDED" stroke-width="6" stroke-linejoin="round" mask="url(#path-2-outside-2_221_111)"/>
<path d="M91.4302 12.98C91.9902 12.1213 92.6902 11.4493 93.5302 10.964C94.3702 10.46 95.3035 10.208 96.3302 10.208V15.276H95.0142C93.8195 15.276 92.9235 15.5373 92.3262 16.06C91.7289 16.564 91.4302 17.46 91.4302 18.748V26H86.6422V10.376H91.4302V12.98Z" stroke="#EDEDED" stroke-width="6" stroke-linejoin="round" mask="url(#path-2-outside-2_221_111)"/>
</svg>
