<?xml version="1.0" standalone="no"?>
<!DOCTYPE svg PUBLIC "-//W3C//DTD SVG 20010904//EN"
 "http://www.w3.org/TR/2001/REC-SVG-20010904/DTD/svg10.dtd">
<svg version="1.0" xmlns="http://www.w3.org/2000/svg"
 width="225.000000pt" height="225.000000pt" viewBox="0 0 225.000000 225.000000"
 preserveAspectRatio="xMidYMid meet">

<g transform="translate(0.000000,225.000000) scale(0.100000,-0.100000)"
fill="#000000" stroke="none">
<path d="M498 1750 c-29 -30 -30 -32 -27 -115 3 -72 7 -88 27 -107 l23 -23
604 0 604 0 23 23 c20 19 24 35 27 107 3 83 2 85 -27 115 l-30 30 -597 0 -597
0 -30 -30z"/>
<path d="M499 1281 c-27 -27 -29 -35 -29 -100 0 -38 5 -82 12 -96 25 -56 18
-55 642 -55 425 0 582 3 601 12 39 18 55 57 55 138 0 66 -2 74 -29 101 l-29
29 -597 0 -597 0 -29 -29z"/>
<path d="M499 811 c-27 -27 -29 -35 -29 -101 0 -85 17 -123 61 -139 45 -15
1143 -15 1188 0 44 16 61 54 61 139 0 66 -2 74 -29 101 l-29 29 -597 0 -597 0
-29 -29z"/>
</g>
</svg>
